<?xml version="1.0" encoding="utf-8"?>
<!-- Generator: Adobe Illustrator 16.0.0, SVG Export Plug-In . SVG Version: 6.00 Build 0)  -->
<!DOCTYPE svg PUBLIC "-//W3C//DTD SVG 1.1//EN" "http://www.w3.org/Graphics/SVG/1.1/DTD/svg11.dtd">
<svg version="1.1" id="Layer_1" xmlns="http://www.w3.org/2000/svg" xmlns:xlink="http://www.w3.org/1999/xlink" x="0px" y="0px"
	 width="10.48px" height="10.982px" viewBox="0 0 10.48 10.982" enable-background="new 0 0 10.48 10.982" xml:space="preserve">
<path fill="none" stroke="#DB3232" stroke-width="1.4784" stroke-linecap="round" stroke-miterlimit="10" d="M1.121,5.277
	c-0.17,0-0.307,0.138-0.307,0.307s0.137,0.307,0.308,0.307l6.172,0.002c0.17,0,0.308-0.137,0.308-0.307
	C7.601,5.417,7.464,5.279,7.294,5.279L1.121,5.277z M8.925,5.491L4.776,1.343c-0.12-0.12-0.12-0.314,0-0.435
	c0.119-0.119,0.313-0.119,0.434,0l4.366,4.366c0.06,0.061,0.09,0.138,0.09,0.217s-0.03,0.157-0.09,0.217L5.21,10.074
	c-0.12,0.12-0.314,0.12-0.434,0c-0.12-0.119-0.12-0.313,0-0.435L8.925,5.491z"/>
</svg>
